<svg id="Layer_1" data-name="Layer 1" xmlns="http://www.w3.org/2000/svg" viewBox="0 0 178.16 178.3"><defs><style>.cls-1{fill:#dadad9;}.cls-2{fill:#7e7e7e;}</style></defs><title>Untitled-1</title><path class="cls-1" d="M309.29,437c-14.35-.73-26.74-5.24-34.33-18.49-1.8-3.15-4.24-7.17-2.36-10.2,1.53-2.46,5.9-.48,8.89-0.14,20.14,2.31,40.24,1.78,60.34-.41,5-.54,5.54.1,4,5.07-4,13-13.63,19.65-26.13,22.84A31.08,31.08,0,0,1,309.29,437Z" transform="translate(-220.05 -304.85)"/><path class="cls-2" d="M253.1,304.95h3c8.33,0,10.53,2.93,8.64,11.21-0.65,2.84-2.58,3.69-5.12,3.74-3.66.07-7.33,0-11,.13-7.63.31-12.82,5.16-13.45,12.75a89.7,89.7,0,0,0-.14,11c0.21,5.2-3,6-7.1,6s-8,0-7.87-5.69-0.25-11.64.73-17.45c2-11.84,8.58-18.68,20.35-20.92A62.42,62.42,0,0,1,253.1,304.95Z" transform="translate(-220.05 -304.85)"/><path class="cls-2" d="M251.92,483c-2.33,0-4.67.15-7,0-14-1.05-22.16-8.72-24.29-22.61-0.84-5.47-.55-11-0.54-16.43,0-3.34,1.39-5.4,5.11-5.16a49.85,49.85,0,0,0,5,0c3.44-.13,4.78,1.71,4.79,4.91s0,6.66.07,10c0.33,9.12,5.19,14.08,14.33,14.53,3.48,0.17,7,.1,10.48.08,4.87,0,5.06,3.31,5,6.85s0.57,7.77-5,8c-2.66.09-5.32,0-8,0V483Z" transform="translate(-220.05 -304.85)"/><path class="cls-2" d="M398.2,336.89c0,1.66,0,3.32,0,5-0.06,7.17-1,7.86-8.06,7.94-4.63.05-6.79-1.79-6.7-6.44,0.07-3.32,0-6.65-.16-10-0.47-8.32-5.38-13.12-13.67-13.41-3.49-.12-7-0.1-10.47-0.1s-5.35-1.42-5.19-5.09c0.09-2,0-4,.07-6a3.47,3.47,0,0,1,3.74-3.76c7.3-.17,14.66-0.74,21.83,1.14,10.83,2.84,17.32,10.71,18.35,22.21,0.25,2.8,0,5.64,0,8.47h0.21Z" transform="translate(-220.05 -304.85)"/><path class="cls-2" d="M398.12,451.84c0,1.83.06,3.67,0,5.5-0.6,15-9.67,24.57-24.62,25.62-5,.35-10,0.05-15,0.18-3.23.09-4.56-1.46-4.51-4.53a37,37,0,0,0,0-4c-0.44-4.78,1.73-6.7,6.46-6.38a68.49,68.49,0,0,0,9.49-.07c8.46-.61,13-5.28,13.41-13.78,0.17-3.49.1-7,.14-10.5s1.46-5.36,5.16-5.12a49.15,49.15,0,0,0,5,0c3.19-.12,4.56,1.53,4.57,4.56,0,2.83,0,5.67,0,8.5h-0.05Z" transform="translate(-220.05 -304.85)"/><path class="cls-1" d="M277.6,388.71a16.78,16.78,0,0,1-16.66-16.9A17.09,17.09,0,0,1,277.79,355c8.94,0,16.87,8.07,16.8,17A17.09,17.09,0,0,1,277.6,388.71Z" transform="translate(-220.05 -304.85)"/><path class="cls-1" d="M357.56,372a16.75,16.75,0,1,1-33.5-.29A16.75,16.75,0,1,1,357.56,372Z" transform="translate(-220.05 -304.85)"/></svg>